<?xml version="1.0" encoding="UTF-8" standalone="no" ?>
<svg version="1.1" viewBox="0 0 118.74 118.74" xmlns="http://www.w3.org/2000/svg" xmlns:svg="http://www.w3.org/2000/svg">
	<rect style="fill:#ffdd33;" width="118.74" height="118.74" x="0" y="0" />
	<g id="g3" transform="matrix(2.0332192,0,0,2.0332192,-61.342224,-61.342224)">
		<path d="m 59.37,30.17 c -16.1,0 -29.2,13.1 -29.2,29.2 0,16.1 13.1,29.2 29.2,29.2 16.1,0 29.2,-13.1 29.2,-29.2 0,-16.1 -13.1,-29.2 -29.2,-29.2 z m 0,53.16 c -13.24,0 -23.96,-10.73 -23.96,-23.96 0,-13.24 10.73,-23.96 23.96,-23.96 13.24,0 23.96,10.73 23.96,23.96 0,13.24 -10.72,23.96 -23.96,23.96 z" />
		<polygon points="55.1,78.11 63.5,70.8 63.5,62.58 76.71,49.63 67.27,49.63 55.1,62.61 " />
		<polygon points="55.1,62.61 56.72,55.07 51.77,49.63 42.03,49.63 " />
	</g>
</svg>
