<?xml version="1.0" encoding="UTF-8" standalone="no"?>
<!-- Generator: Adobe Illustrator 27.9.0, SVG Export Plug-In . SVG Version: 6.00 Build 0)  -->

<svg
   version="1.1"
   id="Vrstva_1"
   x="0px"
   y="0px"
   viewBox="0 0 118.74 118.74"
   style="enable-background:new 0 0 118.74 118.74;"
   xml:space="preserve"
   xmlns="http://www.w3.org/2000/svg"
   xmlns:svg="http://www.w3.org/2000/svg"><defs
   id="defs4" />
<style
   type="text/css"
   id="style1">
	.st0{fill:url(#SVGID_1_);}
	.st1{fill:#0E101F;}
	.st2{fill:#FCD213;}
	.st3{fill:#010202;}
	.st4{fill:none;stroke:#000000;stroke-width:7;stroke-miterlimit:10;}
	.st5{fill:#FDD213;}
	.st6{fill:#6BB42D;}
	.st7{fill:#E83C3D;}
	.st8{fill:#F8F9FA;}
</style>

<g
   id="g3"
   transform="matrix(2.0332192,0,0,2.0332192,-61.342224,-61.342224)">
	<path
   d="m 59.37,30.17 c -16.1,0 -29.2,13.1 -29.2,29.2 0,16.1 13.1,29.2 29.2,29.2 16.1,0 29.2,-13.1 29.2,-29.2 0,-16.1 -13.1,-29.2 -29.2,-29.2 z m 0,53.16 c -13.24,0 -23.96,-10.73 -23.96,-23.96 0,-13.24 10.73,-23.96 23.96,-23.96 13.24,0 23.96,10.73 23.96,23.96 0,13.24 -10.72,23.96 -23.96,23.96 z"
   id="path2" />
	<polygon
   points="55.1,78.11 63.5,70.8 63.5,62.58 76.71,49.63 67.27,49.63 55.1,62.61 "
   id="polygon2" />
	<polygon
   points="55.1,62.61 56.72,55.07 51.77,49.63 42.03,49.63 "
   id="polygon3" />
</g>
<g
   id="g4">
</g>
</svg>
