<?xml version="1.0" encoding="UTF-8" standalone="no" ?>
<svg version="1.1" x="0px" y="0px" viewBox="0 0 118.74 118.74" style="enable-background:new 0 0 118.74 118.74;" xml:space="preserve" xmlns="http://www.w3.org/2000/svg" xmlns:svg="http://www.w3.org/2000/svg">
	<g id="g3" transform="matrix(2.4010111,0,0,2.4010111,-83.185036,-83.185037)">
		<path d="M 81.71,45.16 73.59,37.04 C 72.05,35.5 70,34.65 67.83,34.65 H 42.8 c -4.49,0 -8.15,3.66 -8.15,8.15 v 33.15 c 0,4.49 3.66,8.15 8.15,8.15 h 33.15 c 4.49,0 8.15,-3.66 8.15,-8.15 V 50.92 C 84.09,48.74 83.25,46.7 81.71,45.16 Z m -4.62,30.79 c 0,0.63 -0.52,1.15 -1.15,1.15 H 42.8 c -0.63,0 -1.15,-0.52 -1.15,-1.15 V 42.8 c 0,-0.63 0.52,-1.15 1.15,-1.15 h 25.03 c 0.31,0 0.6,0.12 0.81,0.34 l 8.12,8.12 c 0.22,0.22 0.34,0.51 0.34,0.81 v 25.03 z" />
		<path d="M 62.95,46.09 H 48.87 c -1.39,0 -2.52,1.13 -2.52,2.52 v 2.65 c 0,1.39 1.13,2.52 2.52,2.52 h 14.08 c 1.39,0 2.52,-1.13 2.52,-2.52 v -2.65 c 0,-1.39 -1.13,-2.52 -2.52,-2.52 z" />
		<circle cx="59.369999" cy="68.209999" r="6.0999999" id="circle3" />
	</g>
</svg>
